<?xml version="1.0" encoding="UTF-8"?>
<svg id="_Слой_1" data-name="Слой_1" xmlns="http://www.w3.org/2000/svg" xmlns:xlink="http://www.w3.org/1999/xlink" version="1.1" viewBox="0 0 2000 983">
  <!-- Generator: Adobe Illustrator 29.2.1, SVG Export Plug-In . SVG Version: 2.1.0 Build 116)  -->
  <defs>
    <style>
      .st0 {
        fill: url(#_Безымянный_градиент_911);
      }

      .st1 {
        fill: url(#_Безымянный_градиент_91);
      }

      .st2 {
        fill: #010411;
      }
    </style>
    <linearGradient id="_Безымянный_градиент_91" data-name="Безымянный градиент 91" x1="-62.1" y1="262.6" x2="569.1" y2="1014.9" gradientUnits="userSpaceOnUse">
      <stop offset="0" stop-color="#0096e0"/>
      <stop offset="1" stop-color="#4cbafa"/>
    </linearGradient>
    <linearGradient id="_Безымянный_градиент_911" data-name="Безымянный градиент 91" x1="83" y1="128.1" x2="730.3" y2="899.6" xlink:href="#_Безымянный_градиент_91"/>
  </defs>
  <g>
    <g>
      <path d="M298.4,373c82.4,0,149.2,66.8,149.2,149.2v218.3c0,10.3,8.4,18.7,18.7,18.7h56.4c41.2,0,74.6-33.4,74.6-74.7l-.2-162.4c-.1-164.8-133.8-298.3-298.6-298.3h0C133.7,223.8,0,357.5,0,522.4v442c0,10.3,8.4,18.7,18.7,18.7h111.9c10.3,0,18.7-8.4,18.7-18.7v-442.1c0-82.4,66.8-149.2,149.2-149.2h0Z"/>
      <path d="M298.4,0h-56c-10.3,0-18.7,8.4-18.7,18.7v111.9c0,10.3,8.4,18.7,18.7,18.7h56c206,0,373,167,373,373v162.3c0,82.4-66.8,149.2-149.2,149.2h-130.6c-10.3,0-18.7-8.4-18.7-18.7v-292.9c0-41.2-33.4-74.6-74.6-74.6s-74.6,33.4-74.6,74.6v442.1c0,10.3,8.4,18.7,18.7,18.7h279.8c164.8,0,298.4-133.6,298.4-298.4v-162.3C820.7,233.8,586.8,0,298.4,0Z"/>
    </g>
    <g>
      <path class="st1" d="M298.4,373c82.4,0,149.2,66.8,149.2,149.2v218.3c0,10.3,8.4,18.7,18.7,18.7h56.4c41.2,0,74.6-33.4,74.6-74.7l-.2-162.4c-.1-164.8-133.8-298.3-298.6-298.3h0C133.7,223.8,0,357.5,0,522.4v442c0,10.3,8.4,18.7,18.7,18.7h111.9c10.3,0,18.7-8.4,18.7-18.7v-442.1c0-82.4,66.8-149.2,149.2-149.2h0Z"/>
      <path class="st0" d="M298.4,0h-56c-10.3,0-18.7,8.4-18.7,18.7v111.9c0,10.3,8.4,18.7,18.7,18.7h56c206,0,373,167,373,373v162.3c0,82.4-66.8,149.2-149.2,149.2h-130.6c-10.3,0-18.7-8.4-18.7-18.7v-292.9c0-41.2-33.4-74.6-74.6-74.6s-74.6,33.4-74.6,74.6v442.1c0,10.3,8.4,18.7,18.7,18.7h279.8c164.8,0,298.4-133.6,298.4-298.4v-162.3C820.7,233.8,586.8,0,298.4,0Z"/>
    </g>
  </g>
  <g>
    <g>
      <path class="st2" d="M1001.1,744.7v-415c0-7.7,6.3-14,14-14h65.3c6.7,0,12.5,4.8,13.8,11.4l38.4,200.6v-198c0-7.7,6.3-14,14-14h57.2c7.7,0,14,6.3,14,14v415c0,7.7-6.3,14-14,14h-60.7c-6.7,0-12.4-4.7-13.7-11.3l-41.9-210.5v207.8c0,7.7-6.3,14-14,14h-58.2c-7.7,0-14-6.3-14-14Z"/>
      <path class="st2" d="M1281.4,744.7v-415c0-7.7,6.3-14,14-14h148.6c7.7,0,14,6.3,14,14v57.6c0,7.7-6.3,14-14,14h-72.7v86.1h69.2c7.7,0,14,6.3,14,14v55.6c0,7.7-6.3,14-14,14h-69.2v101.6h78.4c7.7,0,14,6.3,14,14v58.1c0,7.7-6.3,14-14,14h-154.2c-7.7,0-14-6.3-14-14Z"/>
      <path class="st2" d="M1508,742l43.9-218.4-34.5-191.9c-1.5-8.6,5.1-16.5,13.8-16.5h57.4c6.9,0,12.8,5.1,13.9,11.9l21.3,140.7,18.4-140.5c.9-7,6.9-12.2,13.9-12.2h57.7c8.7,0,15.4,7.9,13.8,16.5l-35,191.9,43.9,218.4c1.7,8.7-4.9,16.7-13.7,16.7h-60.3c-6.9,0-12.8-5-13.8-11.8l-25.8-161.5-26.3,161.5c-1.1,6.8-7,11.7-13.8,11.7h-60.8c-8.8,0-15.5-8.1-13.7-16.7Z"/>
      <path class="st2" d="M1811.8,731.9c-17.6-20.6-26.4-51.2-26.4-91.8v-310.4c0-7.7,6.3-14,14-14h57.7c7.7,0,14,6.3,14,14v306.8c0,14.1,1.4,25.1,4.1,33,2.7,7.9,8.6,11.9,17.5,11.9s14.7-3.9,17.5-11.6c2.7-7.7,4.1-18.8,4.1-33.3v-306.8c0-7.7,6.3-14,14-14h57.7c7.7,0,14,6.3,14,14v310.4c0,40.6-8.8,71.2-26.4,91.8-17.6,20.6-44.6,30.9-80.9,30.9s-63.2-10.3-80.9-30.9Z"/>
    </g>
    <g>
      <path class="st2" d="M1003.3,880c-1.5-1.3-2.2-2.9-2.2-5v-41.7c0-1.6,1.4-2.9,3-2.9h24.2c4.3,0,8.2.7,11.5,2.2,3.3,1.5,5.8,3.6,7.7,6.3,1.8,2.7,2.7,5.8,2.7,9.4v14.4c0,6.3-1.8,11.1-5.5,14.4-3.6,3.3-9,4.9-16.1,4.9h-19.6c-2.3,0-4.2-.6-5.7-1.9ZM1028.3,872.9c3.5,0,6.1-.9,7.9-2.7,1.8-1.8,2.7-4.5,2.7-8v-13.6c0-2.8-1-5.1-3-6.7-2-1.7-4.6-2.5-7.9-2.5h-15.6v33.6h16Z"/>
      <path class="st2" d="M1178.7,830.3h5.2c1.7,0,3,1.3,3,2.9v45.7c0,1.6-1.4,2.9-3,2.9h-5.2c-1.7,0-3-1.3-3-2.9v-45.7c0-1.6,1.4-2.9,3-2.9Z"/>
      <path class="st2" d="M1322.9,880.1c-3.2-1.6-5.7-3.9-7.5-6.9-1.8-3-2.6-6.4-2.6-10.3v-13.6c0-3.9.9-7.3,2.6-10.3,1.8-3,4.3-5.3,7.5-6.9,3.2-1.6,7-2.4,11.2-2.4h9.1c4.1,0,7.7.7,10.8,2.2,3.1,1.5,5.5,3.6,7.2,6.3,1.1,1.8,1.9,3.8,2.3,6s-1.2,3.4-3,3.4h-5.1c-1.5,0-2.6-1-3-2.4-.4-1.6-1.2-2.9-2.3-4-1.7-1.6-4-2.4-6.8-2.4h-9.1c-3,0-5.5,1-7.3,3.1-1.8,2-2.8,4.7-2.8,8v12.7c0,3.3.9,6,2.7,8,1.8,2,4.2,3.1,7.2,3.1h9.6c2.8,0,5.1-.9,6.9-2.7,1.8-1.8,2.7-4.1,2.7-6.8v-1.6h-12.8c-1.7,0-3-1.3-3-2.9v-3c0-1.6,1.4-2.9,3-2.9h20.8c1.7,0,3,1.3,3,2.9v7.5c0,3.6-.9,6.8-2.6,9.6-1.7,2.8-4.2,5-7.3,6.6-3.2,1.6-6.7,2.4-10.8,2.4h-9.6c-4.2,0-7.9-.8-11.1-2.4Z"/>
      <path class="st2" d="M1492.8,830.3h5.2c1.7,0,3,1.3,3,2.9v45.7c0,1.6-1.4,2.9-3,2.9h-5.2c-1.7,0-3-1.3-3-2.9v-45.7c0-1.6,1.4-2.9,3-2.9Z"/>
      <path class="st2" d="M1642.5,839.2h-15.1c-1.7,0-3-1.3-3-2.9v-3c0-1.6,1.4-2.9,3-2.9h41.4c1.7,0,3,1.3,3,2.9v3c0,1.6-1.4,2.9-3,2.9h-15.1v39.8c0,1.6-1.4,2.9-3,2.9h-5.2c-1.7,0-3-1.3-3-2.9v-39.8Z"/>
      <path class="st2" d="M1819.7,869.9h-21.4l-4.3,10.2c-.5,1.1-1.6,1.8-2.8,1.8h-5.1c-2.2,0-3.6-2.1-2.8-4.1l18.6-43c1.2-2.7,3.9-4.5,7-4.5h0c3.5,0,5.9,1.5,7.2,4.4l18.5,43.1c.8,1.9-.6,4.1-2.8,4.1h-5.1c-1.2,0-2.3-.7-2.8-1.8l-4.2-10.2ZM1801.3,861.4h15.3l-7.6-18.6h0l-7.7,18.6Z"/>
      <path class="st2" d="M1959.9,880.1c-1.4-1.3-2.2-2.9-2.2-5v-41.8c0-1.6,1.4-2.9,3-2.9h5.2c1.7,0,3,1.3,3,2.9v39.8h27.9c1.7,0,3,1.3,3,2.9v3c0,1.6-1.4,2.9-3,2.9h-31.3c-2.4,0-4.3-.6-5.7-1.9Z"/>
    </g>
  </g>
</svg>